<?xml version="1.0" encoding="UTF-8"?>
<!-- Generator: visioncortex VTracer 0.6.4 -->
<svg version="1.1" xmlns="http://www.w3.org/2000/svg" width="200" height="200">
<path d="M0 0 C3.14640802 0.9153187 5.10451986 1.89948457 7.8515625 3.6015625 C11.75305345 5.98487926 15.67903635 8.31050822 19.64453125 10.5859375 C20.71952881 11.20283447 21.79452637 11.81973145 22.90209961 12.45532227 C24.00690674 13.08881592 25.11171387 13.72230957 26.25 14.375 C34.15807609 18.91670191 42.01254198 23.50685698 49.734375 28.359375 C53.49544982 30.64210827 57.37615063 32.67436174 61.29296875 34.67578125 C63.4375 36 63.4375 36 65.4375 39 C58.99701419 43.48448642 52.36712227 47.31589702 45.4375 51 C49.3975 52.65 53.3575 54.3 57.4375 56 C57.4375 56.66 57.4375 57.32 57.4375 58 C58.0975 58 58.7575 58 59.4375 58 C60.34920595 61.8747503 60.87517226 64.12465548 59.0625 67.75 C53.30146623 72.68802895 46.55719882 73.5236057 39.14453125 73.28515625 C31.61087506 72.49156765 27.04862536 69.8907241 21.4375 65 C20.95394043 65.29245605 20.47038086 65.58491211 19.97216797 65.88623047 C17.7558949 67.22192839 15.53429121 68.54850294 13.3125 69.875 C12.55195312 70.33519531 11.79140625 70.79539062 11.0078125 71.26953125 C2.41439574 76.3811326 2.41439574 76.3811326 -1.5625 77 C-4.21555664 75.89281888 -6.25181309 74.84748655 -8.625 73.3125 C-9.5231543 72.76432617 -9.5231543 72.76432617 -10.43945312 72.20507812 C-12.15736956 71.15325415 -13.8602963 70.0770669 -15.5625 69 C-16.52671875 68.525625 -17.4909375 68.05125 -18.484375 67.5625 C-20.5625 66 -20.5625 66 -20.98046875 63.51171875 C-20.90441406 62.57972656 -20.82835937 61.64773437 -20.75 60.6875 C-20.43775154 53.25208346 -22.46062432 48.81667009 -26.5390625 42.734375 C-27.5625 41 -27.5625 41 -27.5625 39 C-28.5525 38.67 -29.5425 38.34 -30.5625 38 C-30.5625 37.34 -30.5625 36.68 -30.5625 36 C-35.88761072 33.24563239 -40.57786679 32.06761149 -46.5625 33 C-50.81435231 36.48869933 -51.50907519 40.82066136 -52.5625 46 C-56.08698507 45.33298297 -58.74550138 43.89642169 -61.8125 42.0625 C-62.70453125 41.53785156 -63.5965625 41.01320312 -64.515625 40.47265625 C-65.19109375 39.98667969 -65.8665625 39.50070313 -66.5625 39 C-66.5625 38.34 -66.5625 37.68 -66.5625 37 C-64.76171875 35.703125 -64.76171875 35.703125 -62.25 34.25 C-61.44949219 33.78078125 -60.64898437 33.3115625 -59.82421875 32.828125 C-57.06371541 31.28092073 -54.28997268 29.76545651 -51.5078125 28.2578125 C-45.19213588 24.82131791 -38.96966678 21.23160822 -32.75 17.625 C-30.46107983 16.30053525 -28.17201848 14.97631445 -25.8828125 13.65234375 C-24.79516602 13.02312012 -23.70751953 12.39389648 -22.58691406 11.74560547 C-17.73861351 8.94730478 -12.87357475 6.17886966 -8.00390625 3.41796875 C-2.11897383 0 -2.11897383 0 0 0 Z " fill="#006C82" transform="translate(98.5625,20)"/>
<path d="M0 0 C0 25.41 0 50.82 0 77 C-7.59 81.29 -15.18 85.58 -23 90 C-24.98 91.32 -26.96 92.64 -29 94 C-30.61156458 94.91978365 -32.23679101 95.81605656 -33.875 96.6875 C-38.62880225 99.24923518 -43.35439354 101.85551701 -48.0625 104.5 C-48.74562256 104.88365723 -49.42874512 105.26731445 -50.13256836 105.66259766 C-54.90313833 108.35374721 -59.61351311 111.130862 -64.27734375 114.00390625 C-66 115 -66 115 -67 115 C-67.495 102.13 -67.495 102.13 -68 89 C-69.98 91.31 -71.96 93.62 -74 96 C-77.20667544 98.63111831 -78.43549137 99.00973291 -82.625 98.9375 C-86.43502448 97.87915987 -87.05449503 97.30216274 -89 94 C-90.32480503 87.08953054 -88.63819326 80.89091176 -85 75 C-82.02187468 71.06752089 -79.115834 67.74388933 -75 65 C-72.95703125 64.8046875 -72.95703125 64.8046875 -70.8125 64.875 C-69.554375 64.91625 -68.29625 64.9575 -67 65 C-67.07069702 63.82026611 -67.07069702 63.82026611 -67.14282227 62.61669922 C-67.3304465 59.03679718 -67.44709897 55.45792728 -67.5625 51.875 C-67.63791016 50.6375 -67.71332031 49.4 -67.79101562 48.125 C-68.00862983 39.13027956 -68.00862983 39.13027956 -65.12353516 35.8972168 C-62.8120764 34.35011163 -60.53028736 33.14730172 -58 32 C-56.67742187 31.15115234 -56.67742187 31.15115234 -55.328125 30.28515625 C-54.64234375 29.88167969 -53.9565625 29.47820312 -53.25 29.0625 C-52.55390625 28.64097656 -51.8578125 28.21945313 -51.140625 27.78515625 C-48.37072502 26.76918928 -46.79459381 27.15798069 -44 28 C-42.31243867 28.96432076 -40.64333504 29.96210419 -39 31 C-32.23487895 33.25504035 -22.07055743 33.08436493 -15.3125 30.875 C-11.13794058 28.51204184 -9.40252534 27.18504415 -7 23 C-6.57430074 19.73822326 -6.84414469 17.08228081 -8 14 C-9.84756356 11.80728721 -11.57022385 10.60261831 -14 9 C-12.68786941 5.06360824 -11.17198478 4.71346403 -7.5625 2.8125 C-6.07943359 2.01779297 -6.07943359 2.01779297 -4.56640625 1.20703125 C-2 0 -2 0 0 0 Z " fill="#D7DD3D" transform="translate(168,63)"/>
<path d="M0 0 C3.71299744 0.18496482 6.18878655 1.05182657 9.125 3.4375 C9.125 4.0975 9.125 4.7575 9.125 5.4375 C10.115 5.7675 11.105 6.0975 12.125 6.4375 C12.8125 8.5 12.8125 8.5 13.125 10.4375 C13.785 10.4375 14.445 10.4375 15.125 10.4375 C18.04203025 16.67525666 20.35148158 22.46366871 19.125 29.4375 C18.465 30.4275 17.805 31.4175 17.125 32.4375 C23.1610789 36.59873621 29.35495731 40.37963467 35.71875 44.01953125 C38.125 45.4375 38.125 45.4375 39.125 46.4375 C39.21226223 48.21821246 39.23199041 50.0023314 39.22265625 51.78515625 C39.21782227 53.40454102 39.21782227 53.40454102 39.21289062 55.05664062 C39.20032227 56.76110352 39.20032227 56.76110352 39.1875 58.5 C39.18298828 59.64017578 39.17847656 60.78035156 39.17382812 61.95507812 C39.16199747 64.78260351 39.1455141 67.6100264 39.125 70.4375 C38.32400879 70.80645386 38.32400879 70.80645386 37.50683594 71.18286133 C29.43843465 75.03085399 24.15322925 80.5391881 20.78515625 88.9375 C19.5102099 93.76569918 19.39317231 98.50842527 20.125 103.4375 C21.93303404 106.51115786 22.98539464 107.86769732 26.125 109.4375 C31.69462981 109.9556051 33.46545463 108.86301944 39.125 106.4375 C39.125 112.0475 39.125 117.6575 39.125 123.4375 C35.37957418 121.93932967 32.30844817 120.48408477 28.87890625 118.4609375 C27.88383057 117.87666992 26.88875488 117.29240234 25.86352539 116.69042969 C24.81543701 116.07071289 23.76734863 115.45099609 22.6875 114.8125 C20.51069444 113.53338134 18.33361278 112.25473242 16.15625 110.9765625 C14.58810547 110.05472168 14.58810547 110.05472168 12.98828125 109.11425781 C9.56921296 107.11202717 6.13306813 105.14374546 2.6875 103.1875 C-3.21954034 99.82859471 -9.0794474 96.39349256 -14.92944336 92.93652344 C-15.60112549 92.53981445 -16.27280762 92.14310547 -16.96484375 91.734375 C-17.84450806 91.21375488 -17.84450806 91.21375488 -18.74194336 90.68261719 C-21.77388003 88.91280181 -24.82687464 87.17928592 -27.875 85.4375 C-27.875 60.0275 -27.875 34.6175 -27.875 8.4375 C-21.12915414 10.68611529 -21.12915414 10.68611529 -18.04296875 12.6015625 C-17.39005859 13.00117187 -16.73714844 13.40078125 -16.06445312 13.8125 C-15.40380859 14.225 -14.74316406 14.6375 -14.0625 15.0625 C-10.14421074 17.9550923 -10.14421074 17.9550923 -5.875 19.4375 C-6.03484375 18.8909375 -6.1946875 18.344375 -6.359375 17.78125 C-6.94463543 15.12097534 -7.08011158 12.66073064 -7.125 9.9375 C-7.15078125 8.9990625 -7.1765625 8.060625 -7.203125 7.09375 C-6.58065523 2.05470903 -4.99692813 0.56416931 0 0 Z " fill="#8EC549" transform="translate(56.875,54.5625)"/>
</svg>
